<svg id="visual" viewBox="0 0 900 600" width="900" height="600" xmlns="http://www.w3.org/2000/svg" xmlns:xlink="http://www.w3.org/1999/xlink" version="1.1"><rect x="0" y="0" width="900" height="600" fill="#fff2f9"></rect><path d="M0 160L21.5 165.5C43 171 86 182 128.8 176.2C171.7 170.3 214.3 147.7 257.2 133.3C300 119 343 113 385.8 122.2C428.7 131.3 471.3 155.7 514.2 166.2C557 176.7 600 173.3 642.8 165.2C685.7 157 728.3 144 771.2 141C814 138 857 145 878.5 148.5L900 152L900 0L878.5 0C857 0 814 0 771.2 0C728.3 0 685.7 0 642.8 0C600 0 557 0 514.2 0C471.3 0 428.7 0 385.8 0C343 0 300 0 257.2 0C214.3 0 171.7 0 128.8 0C86 0 43 0 21.5 0L0 0Z" fill="#f2eded"></path><path d="M0 104L21.5 104C43 104 86 104 128.8 106.7C171.7 109.3 214.3 114.7 257.2 114.7C300 114.7 343 109.3 385.8 103.5C428.7 97.7 471.3 91.3 514.2 85.7C557 80 600 75 642.8 79.7C685.7 84.3 728.3 98.7 771.2 109.2C814 119.7 857 126.3 878.5 129.7L900 133L900 0L878.5 0C857 0 814 0 771.2 0C728.3 0 685.7 0 642.8 0C600 0 557 0 514.2 0C471.3 0 428.7 0 385.8 0C343 0 300 0 257.2 0C214.3 0 171.7 0 128.8 0C86 0 43 0 21.5 0L0 0Z" fill="#f9eff2"></path><path d="M0 76L21.5 73.8C43 71.7 86 67.3 128.8 63.2C171.7 59 214.3 55 257.2 54.3C300 53.7 343 56.3 385.8 62.5C428.7 68.7 471.3 78.3 514.2 76.2C557 74 600 60 642.8 52.3C685.7 44.7 728.3 43.3 771.2 48.2C814 53 857 64 878.5 69.5L900 75L900 0L878.5 0C857 0 814 0 771.2 0C728.3 0 685.7 0 642.8 0C600 0 557 0 514.2 0C471.3 0 428.7 0 385.8 0C343 0 300 0 257.2 0C214.3 0 171.7 0 128.8 0C86 0 43 0 21.5 0L0 0Z" fill="#fff2f9"></path></svg>