<svg id="visual" viewBox="0 0 900 600" width="900" height="600" xmlns="http://www.w3.org/2000/svg" xmlns:xlink="http://www.w3.org/1999/xlink" version="1.1"><rect x="0" y="0" width="900" height="600" fill="#fce1e1"></rect><path d="M0 182L5.2 162.5C10.3 143 20.7 104 31 105.2C41.3 106.3 51.7 147.7 62 171.3C72.3 195 82.7 201 93 180.2C103.3 159.3 113.7 111.7 124 85.7C134.3 59.7 144.7 55.3 155 71C165.3 86.7 175.7 122.3 186 134.8C196.3 147.3 206.7 136.7 217 124.5C227.3 112.3 237.7 98.7 248 93.5C258.3 88.3 268.7 91.7 279 93C289.3 94.3 299.7 93.7 310 104.7C320.3 115.7 330.7 138.3 341 141.7C351.3 145 361.7 129 372 112C382.3 95 392.7 77 403 71.3C413.3 65.7 423.7 72.3 434.2 93.3C444.7 114.3 455.3 149.7 465.8 143.8C476.3 138 486.7 91 497 91.8C507.3 92.7 517.7 141.3 528 160.3C538.3 179.3 548.7 168.7 559 141.2C569.3 113.7 579.7 69.3 590 65.5C600.3 61.7 610.7 98.3 621 120.3C631.3 142.3 641.7 149.7 652 141C662.3 132.3 672.7 107.7 683 107.5C693.3 107.3 703.7 131.7 714 129.5C724.3 127.3 734.7 98.7 745 79C755.3 59.3 765.7 48.7 776 72.2C786.3 95.7 796.7 153.3 807 167.2C817.3 181 827.7 151 838 133.5C848.3 116 858.7 111 869 106C879.3 101 889.7 96 894.8 93.5L900 91L900 0L894.8 0C889.7 0 879.3 0 869 0C858.7 0 848.3 0 838 0C827.7 0 817.3 0 807 0C796.7 0 786.3 0 776 0C765.7 0 755.3 0 745 0C734.7 0 724.3 0 714 0C703.7 0 693.3 0 683 0C672.7 0 662.3 0 652 0C641.7 0 631.3 0 621 0C610.7 0 600.3 0 590 0C579.7 0 569.3 0 559 0C548.7 0 538.3 0 528 0C517.7 0 507.3 0 497 0C486.7 0 476.3 0 465.8 0C455.3 0 444.7 0 434.2 0C423.7 0 413.3 0 403 0C392.7 0 382.3 0 372 0C361.7 0 351.3 0 341 0C330.7 0 320.3 0 310 0C299.7 0 289.3 0 279 0C268.7 0 258.3 0 248 0C237.7 0 227.3 0 217 0C206.7 0 196.3 0 186 0C175.7 0 165.3 0 155 0C144.7 0 134.3 0 124 0C113.7 0 103.3 0 93 0C82.7 0 72.3 0 62 0C51.7 0 41.3 0 31 0C20.7 0 10.3 0 5.2 0L0 0Z" fill="#ffffff" stroke-linecap="round" stroke-linejoin="miter"></path></svg>